<svg xmlns="http://www.w3.org/2000/svg" viewBox="0 0 331.22 367.27"><defs><style>.cls-1{fill:#fff;}</style></defs><g id="Layer_2" data-name="Layer 2"><g id="Layer_1-2" data-name="Layer 1"><path class="cls-1" d="M165.19,1.88c.72,1.17-17.31,21.05-39.91,44-54.19,55.06-67.81,73-79,103.94-10.51,29.12-11.76,54.42-4.18,85,6.12,24.7,2.85,26.35,57.64-29.12l48.9-49.53,6.06,4.36a103.79,103.79,0,0,1,12.22,10.84l6.17,6.48-5.83,7.65C155.1,201.47,61.3,295,57.46,295c-7.41,0-31.42-33.58-42.55-59.52C4,210-.1,190,0,162.15.19,113.48,17.87,75.48,53.84,46.46c30-24.18,105.31-54.34,111.35-44.58Z"/><path class="cls-1" d="M324.23,100.51c10,29.64,9.17,81-1.81,113.29C311.84,244.91,296,265,244.72,311.88c-15.73,14.4-35.56,32.85-43.89,40.83S185,367.27,184.14,367.27c-2.84,0,.78-21.47,6.52-38.69,7.59-22.77,21.2-42.08,52.14-74,40.22-41.44,50.7-56.6,61.54-89.06C310.88,146,317,112.11,317,95.41c0-11.18,2.29-9.57,7.24,5.1Z"/><path class="cls-1" d="M249.4,192.29c8.2,7.9,9.09,12,4.53,20.66-4.11,7.87-119.55,129.61-126.33,133.24-4.79,2.56-13-1.18-24.23-11.07-6-5.23-7.44-8.13-7.44-14.51,0-7.62,2.66-10.56,60.9-67.27,33.58-32.71,63.85-61.5,67.48-64.19q12.33-9.15,25.09,3.14Z"/></g></g></svg>